<svg xmlns="http://www.w3.org/2000/svg" xmlns:xlink="http://www.w3.org/1999/xlink" viewBox="0 0 800 600"><defs><style>.a{clip-path:url(#b);}.b{fill:none;}.c{fill:#d43136;}.c,.d{fill-rule:evenodd;}.d{fill:#8c082c;}.e{fill:#fff;}</style><clipPath id="b"><rect width="800" height="600"/></clipPath></defs><g id="a" class="a"><rect class="e" width="800" height="600"/><rect class="b" width="800" height="600" transform="translate(0)"/><path class="c" d="M563.938,470.925l17.317,13.181a45.663,45.663,0,0,0,63.69-8.586h0a45.519,45.519,0,0,0-8.594-63.612l-17.316-13.182Z"/><path class="c" d="M545.049,456.533l13.2,10.036,55.1-72.2-13.2-10.036Z"/><path class="c" d="M593.361,380.344,562,322.9,478.57,169.915,511.264,297.26,323.7,172.574,466.946,332.453,145.815,204.623,385.694,370.909l-79.916,25.276L475.665,436.1l63.69,14.994ZM344.281,323.5l52.916,40.27,105.71,35.919Z"/><path class="c" d="M344.768,238.485l-165.41-63.491,203.069,96.143Z"/><path class="c" d="M460.891,229.535,335.929,106.666l120,99.287Z"/><path class="d" d="M322.607,367.766,162.77,324.351l132.957,23.7Z"/><path class="d" d="M145.815,204.623,532.7,401.749l-65.75-69.3Z"/><path class="d" d="M305.778,396.185,495.4,427.992,382.182,389.414Z"/><path class="d" d="M537.662,361.356,507.631,240.782l28.94,65.064Z"/></g></svg>